HIERARCHY
ROOT Hips
{
  OFFSET 13.6774 106.653 -34.4427
  CHANNELS 6 Xposition Yposition Zposition Zrotation Xrotation Yrotation
  JOINT ToSpine
  {
    OFFSET -2.69724 7.43032 -0.144315
    CHANNELS 3 Zrotation Xrotation Yrotation
    JOINT Spine
    {
      OFFSET -0.0310711 10.7595 1.96963
      CHANNELS 3 Zrotation Xrotation Yrotation
      JOINT Spine1
      {
        OFFSET 19.9056 3.91189 0.764692
        CHANNELS 3 Zrotation Xrotation Yrotation
        JOINT Neck
        {
          OFFSET 25.9749 7.03908 -0.130764
          CHANNELS 3 Zrotation Xrotation Yrotation
          JOINT Head
          {
            OFFSET 9.52751 0.295786 -0.907742
            CHANNELS 3 Zrotation Xrotation Yrotation
            End Site
            {
              OFFSET 16.4037 0.713936 2.7358
            }
          }
        }
        JOINT LeftShoulder
        {
          OFFSET 17.7449 4.33886 11.7777
          CHANNELS 3 Zrotation Xrotation Yrotation
          JOINT LeftArm
          {
            OFFSET 0.911315 1.27913 9.80584
            CHANNELS 3 Zrotation Xrotation Yrotation
            JOINT LeftForeArm
            {
              OFFSET 28.6126 1.18197 -3.53199
              CHANNELS 3 Zrotation Xrotation Yrotation
              JOINT LeftHand
              {
                OFFSET 27.5088 0.0218783 0.327423
                CHANNELS 3 Zrotation Xrotation Yrotation
                End Site
                {
                  OFFSET 18.6038 -0.000155887 0.382096
                }
              }
            }
          }
        }
        JOINT RightShoulder
        {
          OFFSET 17.1009 2.89543 -12.2328
          CHANNELS 3 Zrotation Xrotation Yrotation
          JOINT RightArm
          {
            OFFSET 1.4228 0.178766 -10.211
            CHANNELS 3 Zrotation Xrotation Yrotation
            JOINT RightForeArm
            {
              OFFSET 28.733 1.87905 2.64907
              CHANNELS 3 Zrotation Xrotation Yrotation
              JOINT RightHand
              {
                OFFSET 27.4588 0.290562 -0.101845
                CHANNELS 3 Zrotation Xrotation Yrotation
                End Site
                {
                  OFFSET 17.8396 -0.255518 -0.000602873
                }
              }
            }
          }
        }
      }
    }
  }
  JOINT LeftUpLeg
  {
    OFFSET -5.61296 -2.22332 -10.2353
    CHANNELS 3 Zrotation Xrotation Yrotation
    JOINT LeftLeg
    {
      OFFSET 2.56703 -44.7417 -7.93097
      CHANNELS 3 Zrotation Xrotation Yrotation
      JOINT LeftFoot
      {
        OFFSET 3.16933 -46.5642 -3.96578
        CHANNELS 3 Zrotation Xrotation Yrotation
        JOINT LeftToeBase
        {
          OFFSET 0.346054 -6.02161 12.8035
          CHANNELS 3 Zrotation Xrotation Yrotation
          End Site
          {
            OFFSET 0.134235 -1.35082 5.13018
          }
        }
      }
    }
  }
  JOINT RightUpLeg
  {
    OFFSET -5.7928 -1.72406 10.6446
    CHANNELS 3 Zrotation Xrotation Yrotation
    JOINT RightLeg
    {
      OFFSET -2.57161 -44.7178 -7.85259
      CHANNELS 3 Zrotation Xrotation Yrotation
      JOINT RightFoot
      {
        OFFSET -3.10148 -46.5936 -4.03391
        CHANNELS 3 Zrotation Xrotation Yrotation
        JOINT RightToeBase
        {
          OFFSET -0.0828122 -6.13587 12.8035
          CHANNELS 3 Zrotation Xrotation Yrotation
          End Site
          {
            OFFSET -0.131328 -1.35082 5.13018
          }
        }
      }
    }
  }
}
MOTION
Frames: 10
Frame Time: 0.03333333333333333
0.0000 93.1000 0.0000 71.0785 -23.9407 -4.3632 -71.3005 -0.3172 88.3145 82.6839 68.5378 -1.5222 6.3736 16.5310 2.8576 -118.0034 24.8467 155.7867 -175.8866 70.7474 -154.4192 -0.5211 -15.5098 -19.5516 -73.2221 35.2693 -147.1447 8.5324 -2.4004 -96.1741 0.3512 -0.6214 0.2443 -0.7582 6.4606 23.8452 -134.1513 -21.7496 73.8827 12.3008 7.7027 121.8015 -0.3289 1.1485 0.5979 -50.0490 12.8056 90.8557 -3.7387 40.2823 -10.8140 -1.5682 -16.5288 -1.8366 1.9263 -9.0628 8.8427 -34.0275 -16.8254 87.6589 -0.7363 27.0723 6.9755 -0.8532 12.0726 -1.2587 1.4143 -7.0465 -7.9133 
0.0000 93.1000 0.0000 70.9894 -25.4040 -5.6682 -71.3551 -0.4930 88.3814 83.3961 68.7172 -1.7684 5.6119 17.0630 2.7248 -118.2948 25.4277 153.4465 -175.5027 71.1005 -156.6308 -0.7341 -15.1320 -19.9270 -72.9609 35.2351 -148.0844 8.6087 -2.4073 -96.5311 0.1505 -0.9334 0.4670 -0.9157 6.4905 23.9504 -135.4576 -20.9662 74.1174 13.0279 8.7919 121.7971 -0.3780 1.0645 0.3384 -50.8367 11.0140 91.4617 -3.2940 39.4110 -10.0275 -1.2667 -16.1628 -1.6865 1.3835 -8.6827 9.4654 -33.7608 -16.6446 85.8620 0.3254 28.8708 1.1239 -1.0899 11.0753 -1.2312 0.6319 -3.7924 -7.9347 
0.0000 93.1000 0.0000 71.8280 -26.9060 -6.0028 -71.3031 -0.1057 88.4881 84.5670 69.4218 -3.5383 4.9484 17.5667 3.6075 -117.9467 25.7516 155.1418 -174.8015 72.0160 -155.9193 -0.4934 -15.2072 -20.1070 -72.9666 34.4646 -147.4308 8.6525 -1.8703 -97.4636 0.1631 -0.5371 0.2320 -0.8491 5.8786 24.6015 -137.2904 -19.9802 73.1738 12.7089 9.4099 122.4525 -0.2226 0.8338 0.1370 -51.8142 9.9049 92.4338 -2.9312 38.4048 -8.3494 -0.8707 -16.4215 -1.8086 1.0328 -7.2913 8.0938 -32.7261 -16.4165 82.8851 0.7773 33.5086 -2.1210 -3.8537 8.1368 -0.6620 0.1360 -6.0217 -1.6101 
0.0000 93.1000 0.0000 71.8638 -28.1339 -6.0143 -71.2260 -0.3802 88.3835 86.7010 69.7797 -5.3394 4.0478 17.7998 3.9728 -117.5598 25.8758 155.0706 -173.8983 72.2253 -158.2022 -0.6575 -15.2568 -20.3897 -72.7182 34.0168 -147.1120 9.0173 -2.2536 -98.2896 0.1643 -0.6777 0.2867 -1.3140 5.8300 25.8222 -137.9340 -19.0982 72.8740 13.9334 9.9084 123.6834 -0.2392 0.7807 0.1158 -53.2164 9.5996 93.3890 -3.2090 37.2913 -6.9574 -0.4122 -16.3812 -1.5423 0.8088 -6.1044 9.1961 -31.8409 -16.4404 80.5394 0.4220 39.3554 -4.8877 -5.0032 5.7710 -0.3488 -0.3828 -8.1300 3.8104 
0.0000 93.1000 0.0000 71.7871 -28.9638 -6.9764 -71.0490 -0.1597 88.3172 87.4656 69.9802 -7.5085 3.5243 18.0313 4.9703 -117.0081 26.6650 155.4894 -177.3192 72.0985 -156.6168 -0.4634 -14.8038 -20.9880 -73.1029 34.6129 -145.3201 9.9263 -1.7658 -99.0709 0.3438 -0.3916 0.4292 -0.8957 5.6599 26.0366 -138.0646 -18.8803 72.9083 14.2593 10.0767 123.7527 -0.1468 0.9005 0.4534 -53.7993 9.0678 93.6224 -2.7339 36.5101 -7.2372 0.1981 -16.0734 -1.8672 0.9717 -6.7286 10.9927 -31.7037 -16.0324 79.3737 1.3230 43.1407 -4.5148 -4.6985 4.2199 -0.4721 0.9093 -10.0028 2.1445 
0.0000 93.1000 0.0000 72.9821 -28.8928 -6.3873 -71.0188 -0.3601 88.2735 85.5589 70.2952 -5.2187 3.8434 17.8987 5.1336 -116.9990 26.7814 155.7982 -175.2021 72.3960 -156.2952 -0.5590 -15.0182 -21.1237 -72.4963 34.7080 -145.3565 9.9301 -1.8363 -99.1774 0.3555 -0.5248 0.6350 -0.9885 5.6351 26.9440 -137.9377 -18.5836 71.9202 13.8138 9.9609 123.4715 -0.3893 1.0276 0.5240 -54.0598 8.2018 93.3055 -2.5327 36.5450 -7.8766 0.2662 -15.6306 -1.6221 0.9094 -7.2891 12.9725 -32.6744 -16.7017 78.0812 1.4817 45.9786 -4.6159 -4.5931 3.2651 -0.2655 1.1640 -10.6160 1.4809 
0.0000 93.1000 0.0000 73.0475 -29.0008 -6.3798 -71.1042 -0.5772 88.2872 84.3995 70.0727 -3.8190 4.0866 17.5015 5.2371 -116.9729 27.4244 155.2801 -176.1695 72.7477 -156.2791 -1.2112 -15.0275 -21.7737 -71.9897 35.7118 -145.1469 9.9551 -2.4815 -100.0955 0.3540 -0.8853 1.2283 -1.2291 5.4866 27.8955 -136.9332 -19.0415 72.3136 13.1394 9.2896 123.9119 -0.8021 1.8843 0.9691 -53.8869 7.9664 93.3052 -3.3692 36.3182 -8.0198 -0.6980 -15.6447 -1.2128 0.7191 -8.0510 13.5410 -33.8946 -16.6237 76.3463 1.3080 46.4848 -5.2704 -4.8417 3.1617 -0.7394 1.5679 -12.7243 2.7258 
0.0000 93.1000 0.0000 72.9228 -28.7652 -4.7095 -71.0954 1.9514 88.3372 82.4290 69.7471 -1.0302 6.3084 17.0765 5.4489 -118.7923 27.9336 158.3130 -178.2418 72.7888 -156.2291 2.1485 -15.1103 -21.0226 -70.5058 35.7427 -146.0982 10.5493 -2.6682 -100.4861 -0.3673 2.2015 -1.3103 0.0812 6.1769 27.6765 -135.7109 -19.5272 71.9850 12.3826 9.2884 123.6355 0.4822 -2.6540 -1.2502 -54.1050 7.2482 92.7173 -3.4660 36.3790 -7.5431 0.5546 -16.1088 -3.6256 1.2859 -7.1863 11.7095 -35.9957 -17.7332 75.8968 0.1915 43.5751 -4.7299 -2.8697 2.5809 1.0098 1.0853 -10.9615 2.9441 
0.0000 93.1000 0.0000 72.9339 -29.1348 -6.0932 -70.9498 -0.6762 88.0538 79.4054 69.2313 2.2944 5.4024 16.9205 4.4810 -120.0459 28.6787 159.2103 180.1216 72.2308 -152.0398 -1.2193 -13.9424 -21.0400 -70.1557 36.1886 -145.8448 10.9057 -3.4166 -100.8828 0.5392 -1.1532 0.8440 -1.4322 5.6563 27.8993 -135.7074 -21.2696 71.0520 12.9128 8.6874 122.8279 -0.3907 1.6558 1.2946 -53.4623 6.3628 92.7452 -3.0022 36.7532 -7.3969 -0.2220 -17.0252 -1.1266 -0.6464 -5.8769 11.8057 -35.4319 -17.6897 76.0790 0.5711 42.3340 -7.4673 -1.9700 3.4270 -0.7891 0.1946 -9.7199 8.9868 
0.0000 93.1000 0.0000 73.1521 -29.1015 -5.5585 -70.9247 -0.1980 88.0938 79.0256 69.0932 3.2581 6.5832 17.2028 3.9751 -120.9498 28.5778 158.8908 174.7904 72.3376 -154.1078 -0.6390 -14.1190 -20.9141 -69.7410 36.6578 -147.2012 11.5194 -3.0380 -101.3896 0.0857 -0.3290 0.2485 -1.5876 6.1137 28.8709 -135.9670 -21.2791 71.0343 12.7586 8.3796 122.7295 -0.2488 0.6635 0.4259 -53.1562 5.7949 92.1751 -3.4449 37.2031 -5.9059 0.1749 -16.7173 -1.6381 -0.8531 -4.4552 10.9543 -35.9769 -17.8702 75.6035 0.2661 41.0697 -7.5399 -2.2868 4.1913 -0.4267 0.0276 -10.6404 8.1445 
